<mxfile host="app.diagrams.net" agent="Mozilla/5.0 (Windows NT 10.0; Win64; x64) AppleWebKit/537.36 (KHTML, like Gecko) Chrome/133.0.0.0 Safari/537.36" version="26.0.14">
  <diagram name="Page-1" id="FjWuSkkg7LxwhWnRl-Zs">
    <mxGraphModel dx="2474" dy="1196" grid="0" gridSize="10" guides="1" tooltips="1" connect="1" arrows="1" fold="1" page="0" pageScale="1" pageWidth="850" pageHeight="1100" math="0" shadow="0">
      <root>
        <mxCell id="0" />
        <mxCell id="1" parent="0" />
        <mxCell id="u-IhtQbyeOaBhjFLJjDN-2" value="" style="rounded=0;whiteSpace=wrap;html=1;" vertex="1" parent="1">
          <mxGeometry x="-528" y="-197" width="1407" height="60" as="geometry" />
        </mxCell>
        <mxCell id="u-IhtQbyeOaBhjFLJjDN-3" value="" style="rounded=0;whiteSpace=wrap;html=1;" vertex="1" parent="1">
          <mxGeometry x="-528" y="-126" width="1407" height="478" as="geometry" />
        </mxCell>
        <mxCell id="u-IhtQbyeOaBhjFLJjDN-7" value="" style="whiteSpace=wrap;html=1;aspect=fixed;" vertex="1" parent="1">
          <mxGeometry x="-433" y="492" width="226" height="226" as="geometry" />
        </mxCell>
        <mxCell id="u-IhtQbyeOaBhjFLJjDN-8" value="" style="whiteSpace=wrap;html=1;aspect=fixed;" vertex="1" parent="1">
          <mxGeometry x="39" y="494" width="226" height="226" as="geometry" />
        </mxCell>
        <mxCell id="u-IhtQbyeOaBhjFLJjDN-9" value="" style="whiteSpace=wrap;html=1;aspect=fixed;" vertex="1" parent="1">
          <mxGeometry x="526" y="492" width="228" height="228" as="geometry" />
        </mxCell>
        <mxCell id="u-IhtQbyeOaBhjFLJjDN-10" value="" style="rounded=0;whiteSpace=wrap;html=1;" vertex="1" parent="1">
          <mxGeometry x="-528" y="370" width="1408" height="68" as="geometry" />
        </mxCell>
        <mxCell id="u-IhtQbyeOaBhjFLJjDN-11" value="List" style="swimlane;fontStyle=0;childLayout=stackLayout;horizontal=1;startSize=30;horizontalStack=0;resizeParent=1;resizeParentMax=0;resizeLast=0;collapsible=1;marginBottom=0;whiteSpace=wrap;html=1;" vertex="1" parent="1">
          <mxGeometry x="-394" y="726" width="140" height="120" as="geometry" />
        </mxCell>
        <mxCell id="u-IhtQbyeOaBhjFLJjDN-12" value="Item 1" style="text;strokeColor=none;fillColor=none;align=left;verticalAlign=middle;spacingLeft=4;spacingRight=4;overflow=hidden;points=[[0,0.5],[1,0.5]];portConstraint=eastwest;rotatable=0;whiteSpace=wrap;html=1;" vertex="1" parent="u-IhtQbyeOaBhjFLJjDN-11">
          <mxGeometry y="30" width="140" height="30" as="geometry" />
        </mxCell>
        <mxCell id="u-IhtQbyeOaBhjFLJjDN-13" value="Item 2" style="text;strokeColor=none;fillColor=none;align=left;verticalAlign=middle;spacingLeft=4;spacingRight=4;overflow=hidden;points=[[0,0.5],[1,0.5]];portConstraint=eastwest;rotatable=0;whiteSpace=wrap;html=1;" vertex="1" parent="u-IhtQbyeOaBhjFLJjDN-11">
          <mxGeometry y="60" width="140" height="30" as="geometry" />
        </mxCell>
        <mxCell id="u-IhtQbyeOaBhjFLJjDN-14" value="Item 3" style="text;strokeColor=none;fillColor=none;align=left;verticalAlign=middle;spacingLeft=4;spacingRight=4;overflow=hidden;points=[[0,0.5],[1,0.5]];portConstraint=eastwest;rotatable=0;whiteSpace=wrap;html=1;" vertex="1" parent="u-IhtQbyeOaBhjFLJjDN-11">
          <mxGeometry y="90" width="140" height="30" as="geometry" />
        </mxCell>
        <mxCell id="u-IhtQbyeOaBhjFLJjDN-15" value="List" style="swimlane;fontStyle=0;childLayout=stackLayout;horizontal=1;startSize=30;horizontalStack=0;resizeParent=1;resizeParentMax=0;resizeLast=0;collapsible=1;marginBottom=0;whiteSpace=wrap;html=1;" vertex="1" parent="1">
          <mxGeometry x="86" y="727" width="140" height="120" as="geometry" />
        </mxCell>
        <mxCell id="u-IhtQbyeOaBhjFLJjDN-16" value="Item 1" style="text;strokeColor=none;fillColor=none;align=left;verticalAlign=middle;spacingLeft=4;spacingRight=4;overflow=hidden;points=[[0,0.5],[1,0.5]];portConstraint=eastwest;rotatable=0;whiteSpace=wrap;html=1;" vertex="1" parent="u-IhtQbyeOaBhjFLJjDN-15">
          <mxGeometry y="30" width="140" height="30" as="geometry" />
        </mxCell>
        <mxCell id="u-IhtQbyeOaBhjFLJjDN-17" value="Item 2" style="text;strokeColor=none;fillColor=none;align=left;verticalAlign=middle;spacingLeft=4;spacingRight=4;overflow=hidden;points=[[0,0.5],[1,0.5]];portConstraint=eastwest;rotatable=0;whiteSpace=wrap;html=1;" vertex="1" parent="u-IhtQbyeOaBhjFLJjDN-15">
          <mxGeometry y="60" width="140" height="30" as="geometry" />
        </mxCell>
        <mxCell id="u-IhtQbyeOaBhjFLJjDN-18" value="Item 3" style="text;strokeColor=none;fillColor=none;align=left;verticalAlign=middle;spacingLeft=4;spacingRight=4;overflow=hidden;points=[[0,0.5],[1,0.5]];portConstraint=eastwest;rotatable=0;whiteSpace=wrap;html=1;" vertex="1" parent="u-IhtQbyeOaBhjFLJjDN-15">
          <mxGeometry y="90" width="140" height="30" as="geometry" />
        </mxCell>
        <mxCell id="u-IhtQbyeOaBhjFLJjDN-19" value="List" style="swimlane;fontStyle=0;childLayout=stackLayout;horizontal=1;startSize=30;horizontalStack=0;resizeParent=1;resizeParentMax=0;resizeLast=0;collapsible=1;marginBottom=0;whiteSpace=wrap;html=1;" vertex="1" parent="1">
          <mxGeometry x="576" y="728" width="140" height="120" as="geometry" />
        </mxCell>
        <mxCell id="u-IhtQbyeOaBhjFLJjDN-20" value="Item 1" style="text;strokeColor=none;fillColor=none;align=left;verticalAlign=middle;spacingLeft=4;spacingRight=4;overflow=hidden;points=[[0,0.5],[1,0.5]];portConstraint=eastwest;rotatable=0;whiteSpace=wrap;html=1;" vertex="1" parent="u-IhtQbyeOaBhjFLJjDN-19">
          <mxGeometry y="30" width="140" height="30" as="geometry" />
        </mxCell>
        <mxCell id="u-IhtQbyeOaBhjFLJjDN-21" value="Item 2" style="text;strokeColor=none;fillColor=none;align=left;verticalAlign=middle;spacingLeft=4;spacingRight=4;overflow=hidden;points=[[0,0.5],[1,0.5]];portConstraint=eastwest;rotatable=0;whiteSpace=wrap;html=1;" vertex="1" parent="u-IhtQbyeOaBhjFLJjDN-19">
          <mxGeometry y="60" width="140" height="30" as="geometry" />
        </mxCell>
        <mxCell id="u-IhtQbyeOaBhjFLJjDN-22" value="Item 3" style="text;strokeColor=none;fillColor=none;align=left;verticalAlign=middle;spacingLeft=4;spacingRight=4;overflow=hidden;points=[[0,0.5],[1,0.5]];portConstraint=eastwest;rotatable=0;whiteSpace=wrap;html=1;" vertex="1" parent="u-IhtQbyeOaBhjFLJjDN-19">
          <mxGeometry y="90" width="140" height="30" as="geometry" />
        </mxCell>
        <mxCell id="u-IhtQbyeOaBhjFLJjDN-23" value="" style="rounded=0;whiteSpace=wrap;html=1;" vertex="1" parent="1">
          <mxGeometry x="-462" y="1285" width="1236" height="60" as="geometry" />
        </mxCell>
        <mxCell id="u-IhtQbyeOaBhjFLJjDN-24" value="" style="whiteSpace=wrap;html=1;aspect=fixed;" vertex="1" parent="1">
          <mxGeometry x="-444" y="910" width="302" height="302" as="geometry" />
        </mxCell>
        <mxCell id="u-IhtQbyeOaBhjFLJjDN-25" value="" style="whiteSpace=wrap;html=1;aspect=fixed;" vertex="1" parent="1">
          <mxGeometry x="-12" y="917" width="299" height="299" as="geometry" />
        </mxCell>
        <mxCell id="u-IhtQbyeOaBhjFLJjDN-26" value="" style="whiteSpace=wrap;html=1;aspect=fixed;" vertex="1" parent="1">
          <mxGeometry x="430" y="910" width="307" height="307" as="geometry" />
        </mxCell>
        <mxCell id="u-IhtQbyeOaBhjFLJjDN-27" value="" style="endArrow=none;html=1;rounded=0;fontSize=12;startSize=8;endSize=8;curved=1;entryX=0.004;entryY=0.036;entryDx=0;entryDy=0;entryPerimeter=0;exitX=0.999;exitY=0.985;exitDx=0;exitDy=0;exitPerimeter=0;" edge="1" parent="1" source="u-IhtQbyeOaBhjFLJjDN-3" target="u-IhtQbyeOaBhjFLJjDN-3">
          <mxGeometry width="50" height="50" relative="1" as="geometry">
            <mxPoint x="175" y="175" as="sourcePoint" />
            <mxPoint x="225" y="125" as="targetPoint" />
          </mxGeometry>
        </mxCell>
        <mxCell id="u-IhtQbyeOaBhjFLJjDN-28" value="" style="endArrow=none;html=1;rounded=0;fontSize=12;startSize=8;endSize=8;curved=1;entryX=0.004;entryY=0.981;entryDx=0;entryDy=0;entryPerimeter=0;exitX=0.985;exitY=0.023;exitDx=0;exitDy=0;exitPerimeter=0;" edge="1" parent="1" source="u-IhtQbyeOaBhjFLJjDN-3" target="u-IhtQbyeOaBhjFLJjDN-3">
          <mxGeometry width="50" height="50" relative="1" as="geometry">
            <mxPoint x="175" y="175" as="sourcePoint" />
            <mxPoint x="225" y="125" as="targetPoint" />
          </mxGeometry>
        </mxCell>
      </root>
    </mxGraphModel>
  </diagram>
</mxfile>
